<svg width="114" height="128" viewBox="0 0 114 128" fill="none" xmlns="http://www.w3.org/2000/svg">
<ellipse cx="57" cy="64.5" rx="57" ry="59.5" fill="#3A86FF"/>
<path d="M47.67 37.66C50.61 37.66 53.2233 38.3133 55.51 39.62C57.7967 40.88 59.57 42.77 60.83 45.29C62.1367 47.7633 62.79 50.75 62.79 54.25V77H52.99V55.58C52.99 52.5 52.22 50.1433 50.68 48.51C49.14 46.83 47.04 45.99 44.38 45.99C41.6733 45.99 39.5267 46.83 37.94 48.51C36.4 50.1433 35.63 52.5 35.63 55.58V77H25.83V25.2H35.63V43.05C36.89 41.37 38.57 40.0633 40.67 39.13C42.77 38.15 45.1033 37.66 47.67 37.66Z" fill="white"/>
<path d="M62.63 56.82C63.89 55.0467 65.6167 53.5767 67.81 52.41C70.05 51.1967 72.5933 50.59 75.44 50.59C78.7533 50.59 81.74 51.4067 84.4 53.04C87.1067 54.6733 89.23 57.0067 90.77 60.04C92.3567 63.0267 93.15 66.5033 93.15 70.47C93.15 74.4367 92.3567 77.96 90.77 81.04C89.23 84.0733 87.1067 86.43 84.4 88.11C81.74 89.79 78.7533 90.63 75.44 90.63C72.5933 90.63 70.0733 90.0467 67.88 88.88C65.7333 87.7133 63.9833 86.2433 62.63 84.47V108.48H52.83V51.22H62.63V56.82ZM83.14 70.47C83.14 68.1367 82.65 66.13 81.67 64.45C80.7367 62.7233 79.4767 61.4167 77.89 60.53C76.35 59.6433 74.67 59.2 72.85 59.2C71.0767 59.2 69.3967 59.6667 67.81 60.6C66.27 61.4867 65.01 62.7933 64.03 64.52C63.0967 66.2467 62.63 68.2767 62.63 70.61C62.63 72.9433 63.0967 74.9733 64.03 76.7C65.01 78.4267 66.27 79.7567 67.81 80.69C69.3967 81.5767 71.0767 82.02 72.85 82.02C74.67 82.02 76.35 81.5533 77.89 80.62C79.4767 79.6867 80.7367 78.3567 81.67 76.63C82.65 74.9033 83.14 72.85 83.14 70.47Z" fill="white"/>
</svg>
