<svg width="375" height="206" viewBox="0 0 375 206" fill="none" xmlns="http://www.w3.org/2000/svg">
<ellipse cx="80" cy="103.5" rx="57" ry="59.5" fill="#3A86FF"/>
<path d="M70.67 76.66C73.61 76.66 76.2233 77.3133 78.51 78.62C80.7967 79.88 82.57 81.77 83.83 84.29C85.1367 86.7633 85.79 89.75 85.79 93.25V116H75.99V94.58C75.99 91.5 75.22 89.1433 73.68 87.51C72.14 85.83 70.04 84.99 67.38 84.99C64.6733 84.99 62.5267 85.83 60.94 87.51C59.4 89.1433 58.63 91.5 58.63 94.58V116H48.83V64.2H58.63V82.05C59.89 80.37 61.57 79.0633 63.67 78.13C65.77 77.15 68.1033 76.66 70.67 76.66Z" fill="white"/>
<path d="M85.63 95.82C86.89 94.0467 88.6167 92.5767 90.81 91.41C93.05 90.1967 95.5933 89.59 98.44 89.59C101.753 89.59 104.74 90.4067 107.4 92.04C110.107 93.6733 112.23 96.0067 113.77 99.04C115.357 102.027 116.15 105.503 116.15 109.47C116.15 113.437 115.357 116.96 113.77 120.04C112.23 123.073 110.107 125.43 107.4 127.11C104.74 128.79 101.753 129.63 98.44 129.63C95.5933 129.63 93.0733 129.047 90.88 127.88C88.7333 126.713 86.9833 125.243 85.63 123.47V147.48H75.83V90.22H85.63V95.82ZM106.14 109.47C106.14 107.137 105.65 105.13 104.67 103.45C103.737 101.723 102.477 100.417 100.89 99.53C99.35 98.6433 97.67 98.2 95.85 98.2C94.0767 98.2 92.3967 98.6667 90.81 99.6C89.27 100.487 88.01 101.793 87.03 103.52C86.0967 105.247 85.63 107.277 85.63 109.61C85.63 111.943 86.0967 113.973 87.03 115.7C88.01 117.427 89.27 118.757 90.81 119.69C92.3967 120.577 94.0767 121.02 95.85 121.02C97.67 121.02 99.35 120.553 100.89 119.62C102.477 118.687 103.737 117.357 104.67 115.63C105.65 113.903 106.14 111.85 106.14 109.47Z" fill="white"/>
<path d="M179.75 97.6C178.95 96.1333 177.85 95.0167 176.45 94.25C175.05 93.4833 173.417 93.1 171.55 93.1C169.483 93.1 167.65 93.5667 166.05 94.5C164.45 95.4333 163.2 96.7667 162.3 98.5C161.4 100.233 160.95 102.233 160.95 104.5C160.95 106.833 161.4 108.867 162.3 110.6C163.233 112.333 164.517 113.667 166.15 114.6C167.783 115.533 169.683 116 171.85 116C174.517 116 176.7 115.3 178.4 113.9C180.1 112.467 181.217 110.483 181.75 107.95H169.75V102.6H188.65V108.7C188.183 111.133 187.183 113.383 185.65 115.45C184.117 117.517 182.133 119.183 179.7 120.45C177.3 121.683 174.6 122.3 171.6 122.3C168.233 122.3 165.183 121.55 162.45 120.05C159.75 118.517 157.617 116.4 156.05 113.7C154.517 111 153.75 107.933 153.75 104.5C153.75 101.067 154.517 98 156.05 95.3C157.617 92.5667 159.75 90.45 162.45 88.95C165.183 87.4167 168.217 86.65 171.55 86.65C175.483 86.65 178.9 87.6167 181.8 89.55C184.7 91.45 186.7 94.1333 187.8 97.6H179.75ZM215.229 115.35H201.329L199.029 122H191.679L204.229 87.05H212.379L224.929 122H217.529L215.229 115.35ZM213.329 109.75L208.279 95.15L203.229 109.75H213.329ZM249.97 87.1V111.6C249.97 115 248.987 117.65 247.02 119.55C245.053 121.417 242.42 122.35 239.12 122.35C235.787 122.35 233.087 121.383 231.02 119.45C228.987 117.517 227.97 114.817 227.97 111.35H234.97C235.003 112.85 235.353 114.017 236.02 114.85C236.72 115.683 237.72 116.1 239.02 116.1C240.287 116.1 241.253 115.7 241.92 114.9C242.587 114.1 242.92 113 242.92 111.6V87.1H249.97ZM278.486 87.1V111.6C278.486 115 277.502 117.65 275.536 119.55C273.569 121.417 270.936 122.35 267.636 122.35C264.302 122.35 261.602 121.383 259.536 119.45C257.502 117.517 256.486 114.817 256.486 111.35H263.486C263.519 112.85 263.869 114.017 264.536 114.85C265.236 115.683 266.236 116.1 267.536 116.1C268.802 116.1 269.769 115.7 270.436 114.9C271.102 114.1 271.436 113 271.436 111.6V87.1H278.486ZM308.051 115.35H294.151L291.851 122H284.501L297.051 87.05H305.201L317.751 122H310.351L308.051 115.35ZM306.151 109.75L301.101 95.15L296.051 109.75H306.151ZM340.442 122L332.742 108.4H329.442V122H322.442V87.1H335.542C338.242 87.1 340.542 87.5833 342.442 88.55C344.342 89.4833 345.759 90.7667 346.692 92.4C347.659 94 348.142 95.8 348.142 97.8C348.142 100.1 347.476 102.183 346.142 104.05C344.809 105.883 342.826 107.15 340.192 107.85L348.542 122H340.442ZM329.442 103.15H335.292C337.192 103.15 338.609 102.7 339.542 101.8C340.476 100.867 340.942 99.5833 340.942 97.95C340.942 96.35 340.476 95.1167 339.542 94.25C338.609 93.35 337.192 92.9 335.292 92.9H329.442V103.15Z" fill="white"/>
</svg>
