<svg width="375" height="206" viewBox="0 0 375 206" fill="none" xmlns="http://www.w3.org/2000/svg">
<ellipse cx="80" cy="103.5" rx="57" ry="59.5" fill="#3A86FF"/>
<path d="M67.43 76.94C70.3233 76.94 72.9367 77.57 75.27 78.83C77.6033 80.0433 79.4233 81.8867 80.73 84.36C82.0833 86.8333 82.76 89.8433 82.76 93.39V116H76.46V94.3C76.46 90.4733 75.5033 87.5567 73.59 85.55C71.6767 83.4967 69.0633 82.47 65.75 82.47C62.39 82.47 59.7067 83.52 57.7 85.62C55.74 87.72 54.76 90.7767 54.76 94.79V116H48.39V64.2H54.76V83.1C56.02 81.14 57.7467 79.6233 59.94 78.55C62.18 77.4767 64.6767 76.94 67.43 76.94Z" fill="white"/>
<path d="M82.76 97.71C84.02 95.5167 85.8867 93.6967 88.36 92.25C90.88 90.7567 93.7967 90.01 97.11 90.01C100.517 90.01 103.597 90.8267 106.35 92.46C109.15 94.0933 111.343 96.4033 112.93 99.39C114.517 102.33 115.31 105.76 115.31 109.68C115.31 113.553 114.517 117.007 112.93 120.04C111.343 123.073 109.15 125.43 106.35 127.11C103.597 128.79 100.517 129.63 97.11 129.63C93.8433 129.63 90.95 128.907 88.43 127.46C85.9567 125.967 84.0667 124.123 82.76 121.93V147.2H76.39V90.64H82.76V97.71ZM108.8 109.68C108.8 106.787 108.217 104.267 107.05 102.12C105.883 99.9733 104.297 98.34 102.29 97.22C100.33 96.1 98.16 95.54 95.78 95.54C93.4467 95.54 91.2767 96.1233 89.27 97.29C87.31 98.41 85.7233 100.067 84.51 102.26C83.3433 104.407 82.76 106.903 82.76 109.75C82.76 112.643 83.3433 115.187 84.51 117.38C85.7233 119.527 87.31 121.183 89.27 122.35C91.2767 123.47 93.4467 124.03 95.78 124.03C98.16 124.03 100.33 123.47 102.29 122.35C104.297 121.183 105.883 119.527 107.05 117.38C108.217 115.187 108.8 112.62 108.8 109.68Z" fill="white"/>
<path d="M179.75 97.6C178.95 96.1333 177.85 95.0167 176.45 94.25C175.05 93.4833 173.417 93.1 171.55 93.1C169.483 93.1 167.65 93.5667 166.05 94.5C164.45 95.4333 163.2 96.7667 162.3 98.5C161.4 100.233 160.95 102.233 160.95 104.5C160.95 106.833 161.4 108.867 162.3 110.6C163.233 112.333 164.517 113.667 166.15 114.6C167.783 115.533 169.683 116 171.85 116C174.517 116 176.7 115.3 178.4 113.9C180.1 112.467 181.217 110.483 181.75 107.95H169.75V102.6H188.65V108.7C188.183 111.133 187.183 113.383 185.65 115.45C184.117 117.517 182.133 119.183 179.7 120.45C177.3 121.683 174.6 122.3 171.6 122.3C168.233 122.3 165.183 121.55 162.45 120.05C159.75 118.517 157.617 116.4 156.05 113.7C154.517 111 153.75 107.933 153.75 104.5C153.75 101.067 154.517 98 156.05 95.3C157.617 92.5667 159.75 90.45 162.45 88.95C165.183 87.4167 168.217 86.65 171.55 86.65C175.483 86.65 178.9 87.6167 181.8 89.55C184.7 91.45 186.7 94.1333 187.8 97.6H179.75ZM215.229 115.35H201.329L199.029 122H191.679L204.229 87.05H212.379L224.929 122H217.529L215.229 115.35ZM213.329 109.75L208.279 95.15L203.229 109.75H213.329ZM249.97 87.1V111.6C249.97 115 248.987 117.65 247.02 119.55C245.053 121.417 242.42 122.35 239.12 122.35C235.787 122.35 233.087 121.383 231.02 119.45C228.987 117.517 227.97 114.817 227.97 111.35H234.97C235.003 112.85 235.353 114.017 236.02 114.85C236.72 115.683 237.72 116.1 239.02 116.1C240.287 116.1 241.253 115.7 241.92 114.9C242.587 114.1 242.92 113 242.92 111.6V87.1H249.97ZM278.486 87.1V111.6C278.486 115 277.502 117.65 275.536 119.55C273.569 121.417 270.936 122.35 267.636 122.35C264.302 122.35 261.602 121.383 259.536 119.45C257.502 117.517 256.486 114.817 256.486 111.35H263.486C263.519 112.85 263.869 114.017 264.536 114.85C265.236 115.683 266.236 116.1 267.536 116.1C268.802 116.1 269.769 115.7 270.436 114.9C271.102 114.1 271.436 113 271.436 111.6V87.1H278.486ZM308.051 115.35H294.151L291.851 122H284.501L297.051 87.05H305.201L317.751 122H310.351L308.051 115.35ZM306.151 109.75L301.101 95.15L296.051 109.75H306.151ZM340.442 122L332.742 108.4H329.442V122H322.442V87.1H335.542C338.242 87.1 340.542 87.5833 342.442 88.55C344.342 89.4833 345.759 90.7667 346.692 92.4C347.659 94 348.142 95.8 348.142 97.8C348.142 100.1 347.476 102.183 346.142 104.05C344.809 105.883 342.826 107.15 340.192 107.85L348.542 122H340.442ZM329.442 103.15H335.292C337.192 103.15 338.609 102.7 339.542 101.8C340.476 100.867 340.942 99.5833 340.942 97.95C340.942 96.35 340.476 95.1167 339.542 94.25C338.609 93.35 337.192 92.9 335.292 92.9H329.442V103.15Z" fill="white"/>
</svg>
