<svg width="65" height="58" viewBox="0 0 65 58" fill="none" xmlns="http://www.w3.org/2000/svg">
<path d="M62.1223 27.3008L56.4699 17.4696C56.5907 17.2269 56.6815 16.9538 56.6815 16.6503C56.6815 15.74 55.9258 14.9813 55.019 14.951L48.762 4.0881C48.8224 3.90606 48.8828 3.72401 48.8828 3.54197C48.8828 2.57104 48.097 1.81239 47.1599 1.81239C46.6158 1.81239 46.1624 2.05515 45.8299 2.4496H33.7997C33.4973 2.05527 33.0439 1.81251 32.4999 1.81251C31.9559 1.81251 31.5024 2.05527 31.2001 2.44971H19.2303C18.8977 2.05527 18.4444 1.81251 17.9003 1.81251C16.9633 1.81251 16.1773 2.57104 16.1773 3.54208C16.1773 3.72413 16.2378 3.93653 16.2983 4.08821L9.98077 15.1029C9.37637 15.3759 8.95307 15.9525 8.95307 16.6504C8.95307 16.711 8.98332 16.7717 8.98332 16.8325L2.96811 27.2705C2.152 27.4222 1.54736 28.1202 1.54736 28.9698C1.54736 29.789 2.12164 30.4869 2.90762 30.669L9.13442 41.4713C9.07393 41.6533 9.04369 41.805 9.04369 42.0174C9.04369 42.8366 9.61797 43.5346 10.404 43.6862L16.2378 53.8512C16.1773 54.0332 16.117 54.2456 16.117 54.458C16.117 55.429 16.9028 56.1876 17.8399 56.1876C18.3839 56.1876 18.8374 55.9449 19.1397 55.5808H31.2002C31.5024 55.9447 31.9861 56.1875 32.4999 56.1875C33.0137 56.1875 33.4973 55.9447 33.7997 55.5807H45.8905C46.1927 55.9144 46.6461 56.1268 47.1297 56.1268C48.097 56.1268 48.8527 55.3379 48.8527 54.3972C48.8527 54.2152 48.8226 54.0635 48.7621 53.9118L54.5959 43.6861C55.3818 43.5344 55.9562 42.8365 55.9562 42.0173C55.9562 41.8352 55.926 41.6532 55.8655 41.4711L62.062 30.6689C62.8479 30.5172 63.4525 29.8193 63.4525 28.9696C63.4523 28.1504 62.8779 27.4525 62.1223 27.3008ZM17.3259 51.0595L12.399 42.4724H17.3259V51.0595ZM17.3259 41.5621H12.399C12.3687 41.4408 12.3082 41.3195 12.2479 41.198L17.3259 35.8274V41.5621ZM17.3259 34.4921L11.6432 40.5305C11.4921 40.4697 11.3409 40.3787 11.1898 40.3484L4.90276 29.4248C4.96314 29.2731 4.96314 29.1213 4.96314 28.9696C4.96314 28.818 4.96314 28.6966 4.93289 28.5752L10.797 18.3799C11.0993 18.3495 11.4015 18.2585 11.6736 18.0764L17.326 23.9631L17.3259 34.4921ZM17.3259 22.9009L12.1571 17.5303C12.3082 17.2875 12.399 16.9842 12.399 16.6504C12.399 16.6201 12.3687 16.5593 12.3687 16.529L17.3259 14.7387V22.9009ZM17.3259 13.7676L12.399 15.5579L17.3259 7.00113V13.7676ZM54.1726 18.1978L54.2634 18.3495L50.2733 37.2837L43.0793 29.6676L54.1424 18.1675L54.1726 18.1978ZM32.9231 40.227L34.2228 41.5621H31.6535L32.9231 40.227ZM32.8928 38.9526L23.4923 29.2731L32.4696 19.715L41.84 29.6372L32.8928 38.9526ZM33.4973 39.6201L42.4445 30.3048L50.0617 38.3761L49.3968 41.5621H35.4016L33.4973 39.6201ZM46.3136 5.0289C46.4345 5.08962 46.5553 5.15034 46.7066 5.1807L53.2356 16.5897V16.6504C53.2356 16.9842 53.3262 17.2875 53.4774 17.5303L42.4748 29L33.1045 19.0778L46.3136 5.0289ZM45.2859 4.78614L32.4696 18.4102L26.0313 11.583L44.8022 4.78614H45.2859ZM31.3512 4.78614C31.6534 5.08951 32.0464 5.27155 32.4999 5.27155C32.9534 5.27155 33.3462 5.08951 33.6486 4.78614H42.1121L25.3664 10.8547L19.6232 4.78614H31.3512ZM18.2328 5.42335L18.3537 5.1807C18.4557 5.15454 18.5565 5.12415 18.656 5.08962L24.4294 11.1887L18.2328 13.434V5.42335ZM18.2328 14.405L25.0943 11.9169L31.8349 19.0778L22.8575 28.6056L18.2328 23.8417V14.405ZM18.2328 24.9036L22.3436 29.1821L18.2328 33.5212V24.9036ZM18.2328 34.8563L22.9784 29.8194L32.3185 39.5595L30.384 41.5621H18.2328V34.8563ZM19.0187 53.2139C18.8374 53.0318 18.6258 52.9105 18.3537 52.8194L18.2328 52.6374V42.4724H29.5074L19.1698 53.2139H19.0187ZM33.6788 53.2139C33.3765 52.9409 32.9534 52.7285 32.4999 52.7285C32.0464 52.7285 31.6234 52.9409 31.321 53.2139H20.4392L30.7768 42.4724H35.0993L45.4369 53.2139H33.6788ZM47.2205 51.8787L46.7368 52.7283C46.5857 52.7587 46.4648 52.8193 46.3439 52.88L36.2784 42.4723H49.1854L47.2205 51.8787ZM48.6712 49.3603L50.1222 42.4724H52.6008L48.6712 49.3603ZM52.6008 41.5621H50.3036L50.8174 39.1651L52.7519 41.2284C52.6915 41.3193 52.631 41.4407 52.6008 41.5621ZM60.0669 29.3945L53.8098 40.3484C53.6587 40.409 53.5075 40.4697 53.3564 40.5607L51.029 38.0726L54.9283 19.5026L60.097 28.4842C60.0669 28.6359 60.0064 28.7876 60.0064 28.9696C60.0064 29.1213 60.0366 29.2428 60.0669 29.3945Z" fill="#FFD60A"/>
</svg>
