<svg width="67" height="67" viewBox="0 0 67 67" fill="none" xmlns="http://www.w3.org/2000/svg">
<g clip-path="url(#clip0_71_8)">
<path fill-rule="evenodd" clip-rule="evenodd" d="M45.7834 16.4708H34.6167C33.8763 16.4708 33.1662 16.765 32.6427 17.2885C32.1192 17.812 31.825 18.5221 31.825 19.2625V47.1792C31.825 47.9196 32.1192 48.6296 32.6427 49.1532C33.1662 49.6767 33.8763 49.9708 34.6167 49.9708H45.7834C46.5238 49.9708 47.2338 49.6767 47.7574 49.1532C48.2809 48.6296 48.575 47.9196 48.575 47.1792V19.2625C48.575 18.5221 48.2809 17.812 47.7574 17.2885C47.2338 16.765 46.5238 16.4708 45.7834 16.4708ZM34.6167 10.8875C32.3955 10.8875 30.2653 11.7699 28.6947 13.3405C27.1241 14.9111 26.2417 17.0413 26.2417 19.2625V47.1792C26.2417 49.4004 27.1241 51.5306 28.6947 53.1012C30.2653 54.6718 32.3955 55.5542 34.6167 55.5542H45.7834C48.0046 55.5542 50.1348 54.6718 51.7054 53.1012C53.276 51.5306 54.1584 49.4004 54.1584 47.1792V19.2625C54.1584 17.0413 53.276 14.9111 51.7054 13.3405C50.1348 11.7699 48.0046 10.8875 45.7834 10.8875H34.6167Z" fill="#3A86FF"/>
<path d="M23.4502 20.5467L16.4515 19.3798C15.252 19.18 14.0234 19.2437 12.8511 19.5666C11.6788 19.8896 10.5908 20.4639 9.66289 21.2497C8.73493 22.0355 7.98922 23.014 7.4776 24.1171C6.96597 25.2203 6.70069 26.4216 6.7002 27.6375V41.3642C6.69988 42.5806 6.96456 43.7826 7.47583 44.8864C7.98711 45.9902 8.7327 46.9693 9.66076 47.7558C10.5888 48.5422 11.677 49.117 12.8498 49.4403C14.0225 49.7635 15.2516 49.8274 16.4515 49.6275L23.4502 48.4578V42.7991L15.533 44.1167C15.1335 44.1832 14.7243 44.1619 14.3339 44.0543C13.9434 43.9468 13.581 43.7556 13.2719 43.4939C12.9627 43.2323 12.7142 42.9066 12.5435 42.5393C12.3728 42.172 12.2841 41.772 12.2835 41.367V27.6403C12.2833 27.2349 12.3714 26.8342 12.5417 26.4662C12.712 26.0983 12.9605 25.7718 13.2697 25.5096C13.579 25.2473 13.9417 25.0556 14.3325 24.9478C14.7234 24.8399 15.133 24.8185 15.533 24.885L23.4502 26.2054V20.5439V20.5467Z" fill="#3A86FF"/>
<path d="M56.9502 20.5467L63.9489 19.3798C65.1484 19.18 66.3769 19.2437 67.5493 19.5666C68.7216 19.8896 69.8096 20.4639 70.7375 21.2497C71.6655 22.0355 72.4112 23.014 72.9228 24.1171C73.4344 25.2203 73.6997 26.4216 73.7002 27.6375V41.3642C73.7005 42.5806 73.4358 43.7826 72.9246 44.8864C72.4133 45.9902 71.6677 46.9693 70.7396 47.7558C69.8116 48.5422 68.7233 49.117 67.5506 49.4403C66.3779 49.7635 65.1488 49.8274 63.9489 49.6275L56.9502 48.4578V42.7991L64.8674 44.1167C65.2669 44.1832 65.6761 44.1619 66.0665 44.0543C66.457 43.9468 66.8194 43.7556 67.1285 43.4939C67.4377 43.2323 67.6862 42.9066 67.8569 42.5393C68.0276 42.172 68.1163 41.772 68.1169 41.367V27.6403C68.1171 27.2349 68.029 26.8342 67.8587 26.4662C67.6883 26.0983 67.4399 25.7718 67.1307 25.5096C66.8214 25.2473 66.4587 25.0556 66.0679 24.9478C65.677 24.8399 65.2673 24.8185 64.8674 24.885L56.9502 26.2054V20.5439V20.5467Z" fill="#3A86FF"/>
</g>
<defs>
<clipPath id="clip0_71_8">
<rect width="67" height="67" fill="white"/>
</clipPath>
</defs>
</svg>
